<svg xmlns="http://www.w3.org/2000/svg" xmlns:xlink="http://www.w3.org/1999/xlink" width="1920" zoomAndPan="magnify" viewBox="0 0 1440 802.499976" height="1070" preserveAspectRatio="xMidYMid meet" version="1.2"><defs><clipPath id="3440514212"><path d="M 0.449219 0 L 1439.550781 0 L 1439.550781 802 L 0.449219 802 Z M 0.449219 0 "/></clipPath><filter x="0%" y="0%" width="100%" filterUnits="objectBoundingBox" id="a18e276239" height="100%"><feColorMatrix values="0 0 0 0 1 0 0 0 0 1 0 0 0 0 1 0 0 0 1 0" type="matrix" in="SourceGraphic"/></filter><clipPath id="513b876188"><path d="M 3.03125 1.355469 L 474.488281 1.355469 L 474.488281 543.628906 L 3.03125 543.628906 Z M 3.03125 1.355469 "/></clipPath><clipPath id="7b6207ecb8"><path d="M 1 5 L 471 5 L 471 542.628906 L 1 542.628906 Z M 1 5 "/></clipPath><clipPath id="e42b82bd81"><rect x="0" width="472" y="0" height="543"/></clipPath><clipPath id="52c25aea53"><rect x="0" width="478" y="0" height="544"/></clipPath><clipPath id="ec04c8e068"><path d="M 683 67 L 1439.550781 67 L 1439.550781 800 L 683 800 Z M 683 67 "/></clipPath><clipPath id="d224ba552d"><path d="M 0.304688 0.636719 L 756.550781 0.636719 L 756.550781 729.667969 L 0.304688 729.667969 Z M 0.304688 0.636719 "/></clipPath><clipPath id="6ba29dac49"><path d="M 0.304688 4 L 756.550781 4 L 756.550781 729.667969 L 0.304688 729.667969 Z M 0.304688 4 "/></clipPath><clipPath id="641862d689"><rect x="0" width="757" y="0" height="730"/></clipPath><clipPath id="0a73a1e0cd"><rect x="0" width="757" y="0" height="733"/></clipPath></defs><g id="a4febf76e9"><g clip-rule="nonzero" clip-path="url(#3440514212)"><path style=" stroke:none;fill-rule:nonzero;fill:#ffffff;fill-opacity:1;" d="M 0.449219 0 L 1439.550781 0 L 1439.550781 802 L 0.449219 802 Z M 0.449219 0 "/><path style=" stroke:none;fill-rule:nonzero;fill:#fff9ee;fill-opacity:1;" d="M 0.449219 0 L 1439.550781 0 L 1439.550781 802 L 0.449219 802 Z M 0.449219 0 "/></g><g mask="url(#ad48279871)" transform="matrix(1,0,0,1,238,115)"><g clip-path="url(#52c25aea53)"><g clip-rule="nonzero" clip-path="url(#513b876188)"><g transform="matrix(1,0,0,1,3,1)"><g id="a87df74804" clip-path="url(#e42b82bd81)"><g clip-rule="nonzero" clip-path="url(#7b6207ecb8)"><path style=" stroke:none;fill-rule:nonzero;fill:#723bcf;fill-opacity:1;" d="M 318.367188 281.121094 C 305.578125 280.71875 294.378906 295.660156 288.878906 308.359375 C 286.796875 313.171875 284.980469 318.191406 283.054688 323.519531 C 278.042969 337.378906 272.867188 351.722656 262.296875 363.859375 C 242.652344 386.414062 207.691406 394.800781 175.300781 384.679688 C 156.621094 378.851562 139.085938 367.789062 122.128906 351.058594 C 89.179688 376.480469 46.714844 385.34375 10.417969 372.996094 C 3.582031 370.671875 -0.0742188 363.246094 2.25 356.410156 C 4.578125 349.574219 12.007812 345.929688 18.835938 348.246094 C 45.847656 357.460938 78.765625 350.53125 104.582031 331.472656 C 41.914062 253.289062 25.535156 139.167969 63.921875 46.574219 C 69.429688 33.28125 78.921875 14.847656 97.574219 8.214844 C 119.984375 0.246094 142.277344 13.449219 153.519531 29.09375 C 164.539062 44.429688 168.089844 62.503906 171.21875 78.453125 C 179.46875 120.484375 187.992188 163.9375 186.269531 208.316406 C 184.894531 243.75 175.9375 294 141.238281 333.175781 C 154.914062 346.492188 168.726562 355.234375 183.082031 359.714844 C 205.394531 366.667969 229.839844 361.308594 242.585938 346.675781 C 249.941406 338.226562 254.085938 326.761719 258.46875 314.621094 C 260.449219 309.15625 262.488281 303.507812 264.890625 297.957031 C 276.582031 270.972656 296.429688 254.953125 318.085938 254.953125 C 318.3125 254.953125 318.546875 254.960938 318.773438 254.960938 C 346.910156 255.378906 365.585938 281.9375 368.859375 306.722656 C 371.132812 323.851562 367.964844 340.164062 364.910156 355.945312 C 364.003906 360.597656 363.101562 365.25 362.359375 369.894531 C 358.921875 391.292969 361.238281 407.121094 369.222656 416.953125 C 376.726562 426.179688 390.515625 431.277344 406.132812 430.550781 C 421.914062 429.839844 437.839844 423.917969 453.246094 418.179688 C 457.414062 416.613281 462.089844 417.304688 465.648438 419.976562 C 469.210938 422.652344 471.167969 426.953125 470.839844 431.390625 L 463.550781 530.472656 C 463.042969 537.355469 457.3125 542.597656 450.523438 542.597656 C 450.203125 542.597656 449.882812 542.585938 449.554688 542.554688 C 442.347656 542.035156 436.945312 535.761719 437.476562 528.5625 L 443.289062 449.457031 C 431.941406 453.128906 419.859375 456.105469 407.308594 456.679688 C 383.453125 457.710938 361.648438 449.085938 348.9375 433.453125 C 336.039062 417.609375 331.863281 394.820312 336.535156 365.757812 C 337.320312 360.828125 338.273438 355.902344 339.230469 350.972656 C 342.015625 336.628906 344.644531 323.066406 342.933594 310.160156 C 341.109375 296.347656 331.195312 281.304688 318.367188 281.121094 Z M 160.140625 207.3125 C 161.742188 165.976562 153.511719 124.050781 145.5625 83.5 C 142.820312 69.519531 139.980469 55.0625 132.285156 44.363281 C 127.546875 37.765625 119.207031 32.015625 111.300781 32.015625 C 109.605469 32.015625 107.941406 32.28125 106.332031 32.859375 C 97.488281 35.996094 91.671875 47.910156 88.070312 56.59375 C 53.507812 139.972656 67.886719 242.601562 123.691406 313.492188 C 145.582031 287.429688 158.488281 249.9375 160.140625 207.3125 Z M 160.140625 207.3125 "/></g></g></g></g></g><mask id="ad48279871"><g filter="url(#a18e276239)"><rect x="0" width="1440" y="0" height="802.499976" style="fill:#000000;fill-opacity:0.08;stroke:none;"/></g></mask></g><g clip-rule="nonzero" clip-path="url(#ec04c8e068)"><g mask="url(#11d7fb1f93)" transform="matrix(1,0,0,1,683,67)"><g clip-path="url(#0a73a1e0cd)"><g clip-rule="nonzero" clip-path="url(#d224ba552d)"><g><g id="e2025da975" clip-path="url(#641862d689)"><g clip-rule="nonzero" clip-path="url(#6ba29dac49)"><path style=" stroke:none;fill-rule:nonzero;fill:#ffc319;fill-opacity:1;" d="M 1.671875 227.507812 C 5.660156 216.496094 17.78125 210.835938 28.8125 214.75 C 59.414062 225.808594 93.4375 226.355469 124.464844 216.972656 C 123.007812 207.101562 122.132812 196.695312 121.828125 185.792969 C 120.695312 145.382812 126.675781 105.457031 139.621094 67.109375 C 155.34375 20.515625 180.707031 7.492188 199.21875 4.785156 C 225.359375 0.96875 252.292969 16.691406 264.761719 43.015625 C 273.40625 61.246094 275.242188 83.570312 270.238281 109.375 C 259.613281 164.140625 224.296875 213.304688 175.765625 240.863281 C 175.21875 241.171875 174.6875 241.476562 174.136719 241.777344 C 178.371094 253.054688 183.925781 262.777344 190.792969 270.890625 C 231.75 319.175781 311.417969 305.882812 334.859375 300.644531 C 356.097656 295.894531 376.777344 289.300781 398.683594 282.285156 C 434.144531 270.964844 470.820312 259.238281 509.710938 256.300781 C 577.210938 251.144531 655.835938 282.132812 675.015625 351.195312 C 685.441406 388.722656 674.824219 426.40625 665.476562 459.636719 C 663.472656 466.734375 661.476562 473.804688 659.703125 480.828125 C 655.742188 496.460938 645.042969 549.160156 673.644531 571.230469 C 683.144531 578.558594 696.023438 581.730469 710.21875 583.90625 C 710.519531 583.953125 710.8125 584 711.117188 584.046875 C 715.679688 584.742188 720.371094 585.324219 725.109375 585.921875 C 730.140625 586.550781 735.152344 587.183594 740.082031 587.933594 C 783.050781 594.390625 811.789062 614.089844 820.992188 643.40625 C 827.421875 663.882812 821.796875 686.621094 805.953125 704.191406 C 791.550781 720.179688 771.710938 729.164062 751.992188 729.164062 C 747.773438 729.164062 743.546875 728.75 739.386719 727.898438 C 719.730469 723.914062 702.152344 710.109375 691.183594 690.042969 C 680.109375 669.738281 676.679688 645.480469 681.050781 621.007812 C 669.445312 617.6875 658.058594 612.726562 647.75 604.769531 C 614.15625 578.859375 603.542969 529.878906 618.609375 470.417969 C 620.464844 463.027344 622.558594 455.601562 624.65625 448.136719 C 633.28125 417.535156 641.410156 388.621094 634.167969 362.527344 C 621.242188 315.992188 561.945312 294.824219 512.886719 298.558594 C 478.960938 301.117188 446.226562 311.589844 411.578125 322.660156 C 389.746094 329.636719 367.183594 336.855469 344.078125 342.003906 C 265.839844 359.472656 196.472656 343.101562 158.460938 298.300781 C 148.703125 286.777344 140.855469 273.339844 134.964844 258.046875 C 95.742188 269.453125 52.984375 268.546875 14.414062 254.644531 C 3.410156 250.667969 -2.296875 238.511719 1.671875 227.507812 Z M 728.394531 669.738281 C 733.351562 678.800781 740.421875 684.867188 747.8125 686.367188 C 756.472656 688.140625 767.175781 683.886719 774.453125 675.820312 C 777.1875 672.792969 783.261719 664.78125 780.535156 656.109375 C 774.65625 637.378906 743.265625 631.269531 733.769531 629.839844 C 730.148438 629.292969 726.472656 628.824219 722.796875 628.359375 C 720.070312 643.421875 721.953125 657.9375 728.394531 669.738281 Z M 164.898438 197.71875 C 197.589844 175.445312 221.070312 140.1875 228.613281 101.296875 C 231.859375 84.558594 231.128906 71.058594 226.445312 61.171875 C 222.476562 52.785156 214.054688 46.601562 206.992188 46.601562 C 206.433594 46.601562 205.894531 46.648438 205.347656 46.71875 C 191.9375 48.703125 183 71.113281 179.773438 80.671875 C 168.449219 114.238281 163.191406 149.207031 164.1875 184.613281 C 164.316406 189.113281 164.550781 193.484375 164.898438 197.71875 Z M 164.898438 197.71875 "/></g></g></g></g></g><mask id="11d7fb1f93"><g filter="url(#a18e276239)"><rect x="0" width="1440" y="0" height="802.499976" style="fill:#000000;fill-opacity:0.08;stroke:none;"/></g></mask></g></g></g></svg>