<svg xmlns="http://www.w3.org/2000/svg" xmlns:xlink="http://www.w3.org/1999/xlink" width="1920" zoomAndPan="magnify" viewBox="0 0 1440 802.499976" height="1070" preserveAspectRatio="xMidYMid meet" version="1.2"><defs><clipPath id="0371ef862f"><path d="M 0.449219 0 L 1439.550781 0 L 1439.550781 802 L 0.449219 802 Z M 0.449219 0 "/></clipPath><filter x="0%" y="0%" width="100%" filterUnits="objectBoundingBox" id="517109c591" height="100%"><feColorMatrix values="0 0 0 0 1 0 0 0 0 1 0 0 0 0 1 0 0 0 1 0" type="matrix" in="SourceGraphic"/></filter><clipPath id="86caa16365"><path d="M 3.679688 0.804688 L 549.339844 0.804688 L 549.339844 628.914062 L 3.679688 628.914062 Z M 3.679688 0.804688 "/></clipPath><clipPath id="d013bd3b4a"><path d="M 2 7 L 546.339844 7 L 546.339844 628.914062 L 2 628.914062 Z M 2 7 "/></clipPath><clipPath id="c86ace6f4c"><rect x="0" width="547" y="0" height="629"/></clipPath><clipPath id="b2c470701b"><rect x="0" width="554" y="0" height="629"/></clipPath><clipPath id="925a3d4191"><path d="M 758 41 L 1439.550781 41 L 1439.550781 685 L 758 685 Z M 758 41 "/></clipPath><clipPath id="ae08bad95b"><path d="M 0.617188 0.015625 L 681.550781 0.015625 L 681.550781 639.90625 L 0.617188 639.90625 Z M 0.617188 0.015625 "/></clipPath><clipPath id="1a49b3f8fa"><path d="M 0.617188 3 L 681.550781 3 L 681.550781 639.90625 L 0.617188 639.90625 Z M 0.617188 3 "/></clipPath><clipPath id="f1a0343916"><rect x="0" width="682" y="0" height="640"/></clipPath><clipPath id="289048ed3a"><rect x="0" width="682" y="0" height="644"/></clipPath></defs><g id="8c13eda65d"><g clip-rule="nonzero" clip-path="url(#0371ef862f)"><path style=" stroke:none;fill-rule:nonzero;fill:#ffffff;fill-opacity:1;" d="M 0.449219 0 L 1439.550781 0 L 1439.550781 802 L 0.449219 802 Z M 0.449219 0 "/><path style=" stroke:none;fill-rule:nonzero;fill:#fff9ee;fill-opacity:1;" d="M 0.449219 0 L 1439.550781 0 L 1439.550781 802 L 0.449219 802 Z M 0.449219 0 "/></g><g mask="url(#5928ab82f7)" transform="matrix(1,0,0,1,20,40)"><g clip-path="url(#b2c470701b)"><g clip-rule="nonzero" clip-path="url(#86caa16365)"><g transform="matrix(1,0,0,1,3,0)"><g id="17dd4e73a3" clip-path="url(#c86ace6f4c)"><g clip-rule="nonzero" clip-path="url(#d013bd3b4a)"><path style=" stroke:none;fill-rule:nonzero;fill:#723bcf;fill-opacity:1;" d="M 369.429688 326.039062 C 354.617188 325.574219 341.644531 342.882812 335.273438 357.589844 C 332.863281 363.167969 330.757812 368.984375 328.523438 375.152344 C 322.722656 391.207031 316.726562 407.824219 304.484375 421.882812 C 281.726562 448.011719 241.226562 457.726562 203.703125 446.003906 C 182.066406 439.253906 161.753906 426.4375 142.113281 407.058594 C 103.941406 436.503906 54.753906 446.769531 12.707031 432.46875 C 4.789062 429.773438 0.554688 421.171875 3.25 413.253906 C 5.941406 405.335938 14.550781 401.117188 22.460938 403.796875 C 53.75 414.46875 91.878906 406.441406 121.789062 384.371094 C 49.191406 293.804688 30.21875 161.605469 74.683594 54.347656 C 81.066406 38.945312 92.058594 17.59375 113.671875 9.910156 C 139.625 0.679688 165.453125 15.976562 178.472656 34.097656 C 191.242188 51.859375 195.351562 72.800781 198.980469 91.273438 C 208.535156 139.960938 218.40625 190.296875 216.410156 241.703125 C 214.820312 282.75 204.445312 340.960938 164.25 386.339844 C 180.089844 401.765625 196.089844 411.894531 212.722656 417.082031 C 238.566406 425.136719 266.886719 418.925781 281.648438 401.980469 C 290.167969 392.191406 294.96875 378.910156 300.046875 364.84375 C 302.339844 358.515625 304.703125 351.972656 307.488281 345.542969 C 321.027344 314.289062 344.019531 295.730469 369.105469 295.730469 C 369.367188 295.730469 369.636719 295.738281 369.902344 295.738281 C 402.496094 296.222656 424.128906 326.984375 427.921875 355.699219 C 430.550781 375.539062 426.882812 394.433594 423.347656 412.714844 C 422.296875 418.105469 421.253906 423.492188 420.390625 428.875 C 416.410156 453.664062 419.089844 472 428.34375 483.386719 C 437.03125 494.074219 453.007812 499.980469 471.101562 499.136719 C 489.378906 498.316406 507.828125 491.453125 525.671875 484.808594 C 530.5 482.992188 535.917969 483.792969 540.042969 486.886719 C 544.167969 489.988281 546.433594 494.972656 546.050781 500.109375 L 537.609375 614.886719 C 537.023438 622.859375 530.382812 628.929688 522.523438 628.929688 C 522.148438 628.929688 521.777344 628.917969 521.394531 628.882812 C 513.050781 628.28125 506.789062 621.011719 507.40625 612.675781 L 514.140625 521.039062 C 500.992188 525.292969 486.996094 528.742188 472.460938 529.402344 C 444.824219 530.597656 419.566406 520.609375 404.84375 502.5 C 389.902344 484.144531 385.066406 457.746094 390.476562 424.082031 C 391.386719 418.375 392.492188 412.667969 393.597656 406.953125 C 396.824219 390.339844 399.871094 374.628906 397.886719 359.675781 C 395.773438 343.675781 384.292969 326.253906 369.429688 326.039062 Z M 186.144531 240.542969 C 188 192.660156 178.46875 144.089844 169.257812 97.117188 C 166.078125 80.925781 162.792969 64.179688 153.878906 51.785156 C 148.386719 44.140625 138.726562 37.484375 129.566406 37.484375 C 127.605469 37.484375 125.679688 37.785156 123.8125 38.457031 C 113.566406 42.089844 106.832031 55.894531 102.65625 65.953125 C 62.621094 162.539062 79.277344 281.421875 143.921875 363.539062 C 169.277344 333.347656 184.230469 289.921875 186.144531 240.542969 Z M 186.144531 240.542969 "/></g></g></g></g></g><mask id="5928ab82f7"><g filter="url(#517109c591)"><rect x="0" width="1440" y="0" height="802.499976" style="fill:#000000;fill-opacity:0.08;stroke:none;"/></g></mask></g><g clip-rule="nonzero" clip-path="url(#925a3d4191)"><g mask="url(#2a26c67787)" transform="matrix(1,0,0,1,758,41)"><g clip-path="url(#289048ed3a)"><g clip-rule="nonzero" clip-path="url(#ae08bad95b)"><g><g id="f42e5e5570" clip-path="url(#f1a0343916)"><g clip-rule="nonzero" clip-path="url(#1a49b3f8fa)"><path style=" stroke:none;fill-rule:nonzero;fill:#ffc319;fill-opacity:1;" d="M 1.738281 199.308594 C 5.238281 189.636719 15.882812 184.664062 25.574219 188.101562 C 52.453125 197.816406 82.339844 198.296875 109.589844 190.054688 C 108.3125 181.386719 107.542969 172.246094 107.277344 162.667969 C 106.28125 127.175781 111.535156 92.105469 122.902344 58.421875 C 136.710938 17.496094 158.988281 6.058594 175.25 3.679688 C 198.210938 0.328125 221.871094 14.140625 232.820312 37.261719 C 240.414062 53.273438 242.027344 72.882812 237.632812 95.546875 C 228.296875 143.652344 197.277344 186.832031 154.652344 211.039062 C 154.167969 211.3125 153.703125 211.578125 153.222656 211.84375 C 156.941406 221.75 161.816406 230.289062 167.851562 237.414062 C 203.828125 279.824219 273.800781 268.152344 294.390625 263.546875 C 313.046875 259.378906 331.210938 253.585938 350.449219 247.425781 C 381.597656 237.476562 413.8125 227.179688 447.972656 224.601562 C 507.261719 220.070312 576.320312 247.289062 593.167969 307.949219 C 602.324219 340.914062 593 374.011719 584.789062 403.199219 C 583.027344 409.433594 581.277344 415.644531 579.71875 421.8125 C 576.238281 435.542969 566.839844 481.832031 591.960938 501.21875 C 600.308594 507.652344 611.621094 510.441406 624.089844 512.355469 C 624.355469 512.394531 624.609375 512.433594 624.875 512.472656 C 628.886719 513.085938 633.007812 513.597656 637.167969 514.121094 C 641.585938 514.675781 645.988281 515.230469 650.320312 515.890625 C 688.0625 521.5625 713.304688 538.867188 721.386719 564.613281 C 727.035156 582.601562 722.09375 602.574219 708.179688 618.007812 C 695.527344 632.050781 678.101562 639.9375 660.78125 639.9375 C 657.074219 639.9375 653.363281 639.578125 649.707031 638.828125 C 632.445312 635.328125 617.003906 623.203125 607.371094 605.578125 C 597.640625 587.742188 594.628906 566.4375 598.46875 544.9375 C 588.273438 542.023438 578.273438 537.667969 569.21875 530.679688 C 539.710938 507.917969 530.390625 464.898438 543.621094 412.671875 C 545.253906 406.179688 547.09375 399.65625 548.933594 393.101562 C 556.507812 366.21875 563.652344 340.824219 557.289062 317.90625 C 545.9375 277.027344 493.855469 258.4375 450.761719 261.714844 C 420.964844 263.964844 392.210938 273.164062 361.777344 282.886719 C 342.601562 289.015625 322.78125 295.355469 302.488281 299.875 C 233.769531 315.222656 172.839844 300.839844 139.453125 261.492188 C 130.878906 251.367188 123.988281 239.566406 118.8125 226.136719 C 84.363281 236.152344 46.804688 235.359375 12.929688 223.144531 C 3.261719 219.652344 -1.75 208.976562 1.738281 199.308594 Z M 640.050781 587.742188 C 644.40625 595.703125 650.617188 601.03125 657.109375 602.347656 C 664.714844 603.90625 674.117188 600.171875 680.511719 593.085938 C 682.914062 590.425781 688.246094 583.386719 685.851562 575.773438 C 680.6875 559.320312 653.113281 553.953125 644.777344 552.699219 C 641.59375 552.21875 638.363281 551.808594 635.136719 551.398438 C 632.742188 564.628906 634.394531 577.378906 640.050781 587.742188 Z M 145.109375 173.144531 C 173.820312 153.582031 194.441406 122.613281 201.070312 88.453125 C 203.921875 73.75 203.28125 61.890625 199.167969 53.207031 C 195.679688 45.839844 188.28125 40.410156 182.078125 40.410156 C 181.589844 40.410156 181.113281 40.449219 180.632812 40.515625 C 168.855469 42.257812 161.007812 61.941406 158.171875 70.335938 C 148.226562 99.820312 143.605469 130.53125 144.480469 161.632812 C 144.59375 165.585938 144.800781 169.425781 145.109375 173.144531 Z M 145.109375 173.144531 "/></g></g></g></g></g><mask id="2a26c67787"><g filter="url(#517109c591)"><rect x="0" width="1440" y="0" height="802.499976" style="fill:#000000;fill-opacity:0.08;stroke:none;"/></g></mask></g></g></g></svg>